<svg width="24" height="23" viewBox="0 0 24 23" fill="none" xmlns="http://www.w3.org/2000/svg">
<g clip-path="url(#clip0_5851_72)">
<path d="M0.9375 7.47656C1.55859 7.47656 1.88672 7.125 1.88672 6.51562V3.75C1.88672 2.53125 2.53125 1.91016 3.70312 1.91016H6.53906C7.16016 1.91016 7.5 1.57031 7.5 0.960938C7.5 0.351562 7.16016 0.0234375 6.53906 0.0234375H3.67969C1.23047 0.0234375 0 1.23047 0 3.64453V6.51562C0 7.125 0.339844 7.47656 0.9375 7.47656ZM21.9961 7.47656C22.6172 7.47656 22.9453 7.125 22.9453 6.51562V3.64453C22.9453 1.23047 21.7148 0.0234375 19.2656 0.0234375H16.3945C15.7852 0.0234375 15.4453 0.351562 15.4453 0.960938C15.4453 1.57031 15.7852 1.91016 16.3945 1.91016H19.2305C20.3906 1.91016 21.0586 2.53125 21.0586 3.75V6.51562C21.0586 7.125 21.3984 7.47656 21.9961 7.47656ZM3.67969 22.957H6.53906C7.16016 22.957 7.5 22.6172 7.5 22.0195C7.5 21.4102 7.16016 21.0703 6.53906 21.0703H3.70312C2.53125 21.0703 1.88672 20.4492 1.88672 19.2305V16.4648C1.88672 15.8438 1.54688 15.5039 0.9375 15.5039C0.328125 15.5039 0 15.8438 0 16.4648V19.3242C0 21.75 1.23047 22.957 3.67969 22.957ZM16.3945 22.957H19.2656C21.7148 22.957 22.9453 21.7383 22.9453 19.3242V16.4648C22.9453 15.8438 22.6055 15.5039 21.9961 15.5039C21.3867 15.5039 21.0586 15.8438 21.0586 16.4648V19.2305C21.0586 20.4492 20.3906 21.0703 19.2305 21.0703H16.3945C15.7852 21.0703 15.4453 21.4102 15.4453 22.0195C15.4453 22.6172 15.7852 22.957 16.3945 22.957Z" fill="white" fill-opacity="0.85"/>
<path d="M6.24609 16.7695H16.7109C17.9414 16.7695 18.5742 16.1602 18.5742 14.9414V8.74219C18.5742 7.51172 17.9414 6.90234 16.7109 6.90234H15.1875C14.7305 6.90234 14.5898 6.80859 14.3203 6.51562L13.8398 5.97656C13.5469 5.66016 13.2422 5.48438 12.6445 5.48438H10.2773C9.66797 5.48438 9.36328 5.66016 9.07031 5.97656L8.58984 6.51562C8.32031 6.79688 8.17969 6.90234 7.72266 6.90234H6.24609C5.00391 6.90234 4.38281 7.51172 4.38281 8.74219V14.9414C4.38281 16.1602 5.00391 16.7695 6.24609 16.7695ZM11.4961 15.293C9.53906 15.293 7.96875 13.7344 7.96875 11.7773C7.96875 9.83203 9.53906 8.27344 11.4961 8.27344C13.4297 8.27344 14.9883 9.83203 14.9883 11.7773C14.9883 13.7695 13.4297 15.293 11.4961 15.293ZM11.4844 14.2852C12.8555 14.2852 13.9805 13.1719 13.9805 11.7773C13.9805 10.3945 12.8555 9.28125 11.4844 9.28125C10.1016 9.28125 8.97656 10.3945 8.97656 11.7773C8.97656 13.1719 10.1016 14.2852 11.4844 14.2852ZM16.3828 9.92578C15.9492 9.92578 15.5977 9.5625 15.5977 9.12891C15.5977 8.69531 15.9492 8.33203 16.3828 8.33203C16.8281 8.33203 17.1797 8.69531 17.1797 9.12891C17.1797 9.5625 16.8281 9.92578 16.3828 9.92578Z" fill="white" fill-opacity="0.85"/>
</g>
<defs>
<clipPath id="clip0_5851_72">
<rect width="23.2969" height="22.957" fill="white"/>
</clipPath>
</defs>
</svg>
